<svg width="723" height="671" viewBox="0 0 723 671" fill="none" xmlns="http://www.w3.org/2000/svg">
<g id="ud_barbecue 1" clip-path="url(#clip0)">
<g id="maker">
<path id="Vector" d="M361.5 662C561.151 662 723 651.415 723 638.358C723 625.301 561.151 614.717 361.5 614.717C161.849 614.717 0 625.301 0 638.358C0 651.415 161.849 662 361.5 662Z" fill="#3F3D56"/>
<path id="Vector_2" d="M367.559 380.27H355.441V387.166H367.559V380.27Z" fill="#3F3D56"/>
<path id="Vector_3" d="M391.793 380.27H379.676V387.166H391.793V380.27Z" fill="#3F3D56"/>
<path id="Vector_4" d="M416.028 380.27H403.911V387.166H416.028V380.27Z" fill="#3F3D56"/>
<path id="Vector_5" d="M440.263 380.27H428.145V387.166H440.263V380.27Z" fill="#3F3D56"/>
<path id="Vector_6" d="M464.497 380.27H452.38V387.166H464.497V380.27Z" fill="#3F3D56"/>
<path id="Vector_7" d="M488.732 380.27H476.615V387.166H488.732V380.27Z" fill="#3F3D56"/>
<path id="Vector_8" d="M512.966 380.27H500.849V387.166H512.966V380.27Z" fill="#3F3D56"/>
<path id="Vector_9" d="M537.201 380.27H525.084V387.166H537.201V380.27Z" fill="#3F3D56"/>
<path id="Vector_10" d="M561.436 380.27H549.318V387.166H561.436V380.27Z" fill="#3F3D56"/>
<path id="Vector_11" d="M585.67 380.27H573.553V387.166H585.67V380.27Z" fill="#3F3D56"/>
<path id="Vector_12" d="M609.905 380.27H597.788V387.166H609.905V380.27Z" fill="#3F3D56"/>
<path id="Vector_13" d="M637.674 384.703C637.674 422.324 622.354 458.404 595.085 485.006C567.816 511.608 530.831 526.553 492.266 526.553C453.702 526.553 416.717 511.608 389.447 485.006C362.178 458.404 346.858 422.324 346.858 384.703H637.674Z" fill="#3F3D56"/>
<path id="Vector_14" d="M449.351 421.643C448.012 421.643 446.728 422.162 445.781 423.086C444.834 424.01 444.302 425.262 444.302 426.569C444.302 427.875 444.834 429.128 445.781 430.052C446.728 430.975 448.012 431.494 449.351 431.494H536.192C537.531 431.494 538.815 430.975 539.762 430.052C540.709 429.128 541.241 427.875 541.241 426.569C541.241 425.262 540.709 424.01 539.762 423.086C538.815 422.162 537.531 421.643 536.192 421.643H449.351Z" fill="#6C63FF"/>
<path id="Vector_15" d="M612.934 641.313L594.853 641.966L529.713 505.302L546.194 497.826L612.934 641.313Z" fill="#3F3D56"/>
<path id="Vector_16" d="M371.598 641.313L389.679 641.966L454.82 505.302L438.338 497.826L371.598 641.313Z" fill="#3F3D56"/>
<path id="Vector_17" d="M567.494 562.508H418.047V572.359H567.494V562.508Z" fill="#3F3D56"/>
<path id="Vector_18" d="M340.8 387.166C339.594 387.166 338.439 387.633 337.586 388.464C336.734 389.296 336.256 390.423 336.256 391.599C336.256 392.775 336.734 393.902 337.586 394.733C338.439 395.565 339.594 396.032 340.8 396.032H353.927C355.132 396.032 356.288 395.565 357.14 394.733C357.992 393.902 358.471 392.775 358.471 391.599C358.471 390.423 357.992 389.296 357.14 388.464C356.288 387.633 355.132 387.166 353.927 387.166H340.8Z" fill="#6C63FF"/>
<path id="Vector_19" d="M449.351 354.659H394.823C394.479 354.659 394.146 354.668 393.813 354.698C390.25 354.946 386.916 356.501 384.481 359.049C382.046 361.598 380.69 364.952 380.686 368.436C380.682 371.92 382.03 375.276 384.46 377.83C386.89 380.384 390.221 381.946 393.783 382.201C394.126 382.231 394.469 382.241 394.823 382.241H449.351C453.1 382.241 456.696 380.788 459.347 378.201C461.998 375.615 463.487 372.107 463.487 368.45C463.487 364.792 461.998 361.284 459.347 358.698C456.696 356.112 453.1 354.659 449.351 354.659V354.659Z" fill="#FF6584"/>
<path id="Vector_20" opacity="0.2" d="M389.329 381.147C398.619 379.985 405.93 368.548 405.93 354.659H403.911C403.911 368.243 396.66 379.285 387.754 379.285V380.389L389.329 381.147Z" fill="black"/>
<path id="Vector_21" opacity="0.2" d="M408.96 381.255V379.285C417.868 379.285 425.116 368.238 425.116 354.659H427.136C427.136 369.324 418.982 381.255 408.96 381.255Z" fill="black"/>
<path id="Vector_22" opacity="0.2" d="M430.165 381.255V379.285C439.073 379.285 446.321 368.238 446.321 354.659H448.341C448.341 369.324 440.187 381.255 430.165 381.255Z" fill="black"/>
<path id="Vector_23" d="M548.309 354.659H493.781C493.437 354.659 493.104 354.668 492.771 354.698C489.208 354.946 485.874 356.501 483.439 359.049C481.004 361.598 479.648 364.952 479.644 368.436C479.64 371.92 480.989 375.276 483.418 377.83C485.848 380.384 489.179 381.946 492.741 382.201C493.084 382.231 493.427 382.241 493.781 382.241H548.309C552.058 382.241 555.654 380.788 558.305 378.201C560.956 375.615 562.446 372.107 562.446 368.45C562.446 364.792 560.956 361.284 558.305 358.698C555.654 356.112 552.058 354.659 548.309 354.659V354.659Z" fill="#FF6584"/>
<path id="Vector_24" opacity="0.2" d="M488.288 381.147C497.578 379.985 504.888 368.548 504.888 354.659H502.869C502.869 368.243 495.619 379.285 486.712 379.285V380.389L488.288 381.147Z" fill="black"/>
<path id="Vector_25" opacity="0.2" d="M507.918 381.255V379.285C516.826 379.285 524.074 368.238 524.074 354.659H526.094C526.094 369.324 517.94 381.255 507.918 381.255Z" fill="black"/>
<path id="Vector_26" opacity="0.2" d="M529.123 381.255V379.285C538.031 379.285 545.279 368.238 545.279 354.659H547.299C547.299 369.324 539.145 381.255 529.123 381.255Z" fill="black"/>
<path id="Vector_27" d="M257.784 618.044L234.945 623.954L192.996 434.801L240.072 430.708L257.784 618.044Z" fill="#FFB9B9"/>
<path id="Vector_28" d="M141.258 347.044L143.416 386.33C143.495 387.775 143.255 389.219 142.711 390.566C142.168 391.912 141.333 393.129 140.265 394.133C139.197 395.137 137.92 395.905 136.521 396.385C135.121 396.865 133.632 397.045 132.155 396.914V396.914C129.741 396.7 127.48 395.665 125.769 393.99C124.057 392.315 123.003 390.107 122.791 387.751L118.886 344.315L88.1227 242.463L89.0549 176.987L125.411 178.805L141.258 347.044Z" fill="#FFB9B9"/>
<path id="Vector_29" d="M153.288 620.951L129.924 624.395L109.39 431.904L156.643 432.848L153.288 620.951Z" fill="#FFB9B9"/>
<path id="Vector_30" d="M160.835 443.44C142.624 437.271 121.494 436.059 97.4448 439.802C100.855 400.39 102.831 363.791 101.174 334.312H225.157L160.835 443.44Z" fill="#2F2E41"/>
<path id="Vector_31" d="M247.53 442.53C228.76 452.216 201.609 456.853 170.157 458.899L131.004 337.04L227.021 335.221L247.53 442.53Z" fill="#2F2E41"/>
<path id="Vector_32" d="M295.862 637.818L228.318 640.258C219.666 640.571 219.21 633.322 220.843 625.028L228.84 602.753C246.843 619.959 248.539 620.921 256.257 596.444L279.811 614.593L297.246 617.509C299.688 617.917 301.902 619.156 303.498 621.004C305.093 622.853 305.966 625.193 305.962 627.61V627.61C305.958 630.255 304.904 632.796 303.021 634.699C301.137 636.602 298.572 637.72 295.862 637.818V637.818Z" fill="#2F2E41"/>
<path id="Vector_33" d="M193.562 637.818L126.018 640.258C117.366 640.571 116.91 633.322 118.543 625.028L126.54 602.753C144.544 619.959 146.239 620.921 153.957 596.444L177.511 614.593L194.946 617.509C197.388 617.917 199.603 619.156 201.198 621.004C202.793 622.853 203.666 625.193 203.662 627.61V627.61C203.658 630.255 202.604 632.796 200.721 634.699C198.838 636.602 196.272 637.72 193.562 637.818Z" fill="#2F2E41"/>
<path id="Vector_34" d="M209.31 80.5905C229.388 80.5905 245.666 64.7116 245.666 45.1241C245.666 25.5365 229.388 9.65762 209.31 9.65762C189.231 9.65762 172.953 25.5365 172.953 45.1241C172.953 64.7116 189.231 80.5905 209.31 80.5905Z" fill="#FFB9B9"/>
<path id="Vector_35" d="M190.665 107.872L147.784 95.1412L176.683 53.3083L209.31 66.9495L190.665 107.872Z" fill="#FFB9B9"/>
<path id="Vector_36" d="M230.75 345.225C186.669 354.893 137.734 351.057 95.5804 339.768C105.675 284.855 100.801 225.872 90.9193 177.896C83.1844 140.344 103.589 108.833 137.53 93.3221C144.825 90.7699 153.852 85.4716 161.564 84.727C185.373 82.6692 204.885 103.715 207.369 126.906L230.75 345.225Z" fill="#A3DDA8"/>
<path id="Vector_37" d="M116.089 196.084L85.3261 192.446L94.6484 145.158H116.089V196.084Z" fill="#A3DDA8"/>
<path id="Vector_38" d="M208.801 50.7397L203.232 48.325C201.97 47.7795 200.601 47.5083 199.221 47.5301C197.841 47.5518 196.482 47.8661 195.239 48.4511C193.996 49.0361 192.898 49.8779 192.021 50.918C191.145 51.9581 190.51 53.1718 190.162 54.4748V54.4748L182.4 68.156L163.068 65.1708L163.744 36.2091C164.624 30.7362 166.646 25.4977 169.685 20.8179C172.725 16.1382 176.716 12.1167 181.413 9.00245C186.109 5.88818 191.411 3.74739 196.99 2.71256C202.569 1.67774 208.306 1.77092 213.847 2.98632L214.374 3.10278C223.812 5.18555 236.064 11.9453 242.46 19.0413L254.377 32.2624C254.942 32.8896 255.32 33.656 255.47 34.4781C255.62 35.3002 255.536 36.1467 255.227 36.9255C254.918 37.7043 254.397 38.3857 253.719 38.8955C253.041 39.4054 252.233 39.7242 251.382 39.8173L235.084 41.5717L208.801 50.7397Z" fill="#2F2E41"/>
<path id="Vector_39" d="M329.39 292.613L308.514 310.476C308.212 310.734 307.817 310.864 307.417 310.839C307.016 310.813 306.642 310.633 306.378 310.339C306.113 310.044 305.979 309.659 306.005 309.269C306.031 308.878 306.215 308.513 306.517 308.254L327.393 290.391L323.397 285.948L302.521 303.811C302.219 304.069 301.825 304.199 301.424 304.174C301.023 304.148 300.65 303.968 300.385 303.674C300.12 303.379 299.986 302.994 300.012 302.604C300.038 302.213 300.222 301.848 300.524 301.589L321.4 283.726L317.405 279.283L296.529 297.146C296.379 297.274 296.205 297.372 296.017 297.435C295.828 297.498 295.629 297.523 295.431 297.511C295.232 297.498 295.038 297.447 294.859 297.362C294.681 297.276 294.521 297.156 294.39 297.01C294.259 296.865 294.158 296.695 294.094 296.511C294.03 296.327 294.004 296.133 294.017 295.939C294.03 295.745 294.083 295.556 294.171 295.382C294.259 295.208 294.381 295.052 294.531 294.924L315.407 277.061L310.413 271.507L280.912 296.751C278.278 299.005 276.519 302.073 275.927 305.442C275.335 308.81 275.947 312.275 277.661 315.256L188.592 391.47L196.583 400.357L285.593 324.192C288.309 326.283 291.689 327.381 295.147 327.294C298.605 327.207 301.923 325.942 304.524 323.718L334.384 298.167L329.39 292.613Z" fill="#DEB887"/>
<path id="Vector_40" d="M227.954 347.044L230.111 386.33C230.19 387.775 229.95 389.219 229.406 390.566C228.863 391.912 228.029 393.129 226.96 394.133C225.892 395.137 224.615 395.905 223.216 396.385C221.816 396.865 220.328 397.045 218.85 396.914V396.914C216.436 396.7 214.175 395.665 212.464 393.99C210.752 392.315 209.698 390.107 209.486 387.751L205.581 344.315L174.818 242.463L175.75 176.987L212.106 178.805L227.954 347.044Z" fill="#FFB9B9"/>
<path id="Vector_41" d="M214.903 188.809C203.841 178.457 189.239 178.077 172.953 182.443V133.57C172.953 127.719 175.336 122.108 179.577 117.971C183.818 113.834 189.569 111.51 195.567 111.51V111.51C198.327 111.51 201.06 112.048 203.604 113.093C206.147 114.139 208.452 115.669 210.38 117.596C212.309 119.522 213.824 121.805 214.835 124.311C215.846 126.816 216.333 129.494 216.268 132.186L214.903 188.809Z" fill="#C6EBC9"/>
<path id="pivot" d="M634.14 406.867C644.178 406.867 652.316 398.929 652.316 389.136C652.316 379.343 644.178 371.405 634.14 371.405C624.101 371.405 615.964 379.343 615.964 389.136C615.964 398.929 624.101 406.867 634.14 406.867Z" fill="#3F3D56"/>
<g id="cover">
<path id="Vector_42" d="M356.088 377.063C355.844 377.724 355.756 378.432 355.833 379.13C355.91 379.828 356.148 380.496 356.529 381.081C356.911 381.666 357.424 382.152 358.029 382.5C358.633 382.848 359.312 383.047 360.011 383.083L372.924 383.74C374.109 383.799 375.273 383.383 376.162 382.583C377.051 381.783 377.591 380.665 377.664 379.474C377.737 378.283 377.336 377.117 376.55 376.232C375.764 375.347 374.658 374.815 373.473 374.754L360.56 374.097C359.602 374.05 358.651 374.312 357.846 374.846C357.041 375.38 356.425 376.157 356.088 377.063Z" fill="#6C63FF"/>
<path id="lid" d="M639.8 387.362L345.481 378.475C345.974 359.407 350.272 340.638 358.13 323.242C365.988 305.846 377.252 290.164 391.277 277.094C405.302 264.023 421.813 253.82 439.866 247.068C457.92 240.317 477.161 237.148 496.489 237.745C499.605 237.838 502.708 238.024 505.776 238.304C543.061 241.766 577.672 259.105 602.569 286.795C627.466 314.484 640.779 350.445 639.8 387.362Z" fill="#3F3D56"/>
</g>
</g>
<g id="smoke">
<path id="Vector_43" d="M441.048 223.58C433.971 219.756 425.222 223.926 421.695 230.694C417.405 238.926 420.961 248.822 425.963 255.858C431.161 263.17 438.216 269.205 441.686 277.654C445.005 285.605 445.398 294.476 442.796 302.69C440.194 310.905 434.765 317.931 427.473 322.521C424.218 324.58 427.225 329.774 430.501 327.702C437.653 323.234 443.311 316.736 446.753 309.037C450.196 301.339 451.265 292.79 449.826 284.48C449.096 280.171 447.703 276.001 445.698 272.118C443.523 268.155 440.904 264.453 437.89 261.083C432.685 254.923 426.132 248.131 425.805 239.56C425.746 238.448 425.823 237.333 426.036 236.24C426.192 235.477 426.424 234.731 426.729 234.014C427.456 232.474 428.536 231.126 429.881 230.081C431.127 229.086 432.602 228.419 434.172 228.138C435.488 227.943 436.832 228.16 438.02 228.761C441.417 230.596 444.45 225.418 441.048 223.58Z" fill="#FFB74C"/>
<path id="Vector_44" d="M531.331 259.874C528.318 258.905 525.098 258.772 522.015 259.489C518.932 260.205 516.101 261.745 513.824 263.943C512.647 265.153 511.775 266.627 511.28 268.241C510.786 269.856 510.683 271.565 510.98 273.227C511.552 276.863 513.847 280.092 516.338 282.695C521.211 287.787 528.031 291.079 532.117 296.925C533.929 299.416 535.066 302.334 535.417 305.394C535.627 308.143 535.123 310.901 533.954 313.398C530.905 319.594 524.854 323.808 518.473 326.521C516.981 327.155 516.653 329.353 517.397 330.625C517.812 331.297 518.47 331.783 519.234 331.983C519.998 332.183 520.809 332.083 521.501 331.702C533.245 326.709 544.11 315.527 540.871 301.789C539.167 294.563 533.945 289.463 528.321 285.029C525.528 282.981 522.89 280.73 520.429 278.294C518.484 276.228 516.464 273.408 516.821 270.609C516.964 269.635 517.441 268.742 518.169 268.08C519.052 267.273 520.055 266.607 521.141 266.105C522.473 265.467 523.919 265.099 525.394 265.022C526.87 264.945 528.345 265.162 529.736 265.659C530.503 265.863 531.32 265.758 532.01 265.366C532.7 264.974 533.209 264.327 533.427 263.564C533.622 262.797 533.513 261.985 533.122 261.297C532.732 260.609 532.09 260.099 531.331 259.874V259.874Z" fill="#FFB74C"/>
<path id="Vector_45" d="M485.655 174.524C483.867 172.997 481.61 172.128 479.26 172.062C477.031 172.103 474.864 172.804 473.032 174.075C468.895 177.081 465.968 181.466 464.779 186.44C461.748 198.053 465.702 210.57 471.197 220.798C473.975 225.969 477.21 230.877 480.007 236.037C482.703 240.972 484.773 246.225 486.168 251.673C489.015 262.843 489.269 274.517 486.911 285.8C484.51 297.032 479.459 308.153 470.866 315.902C470.303 316.464 469.987 317.228 469.987 318.023C469.987 318.819 470.303 319.582 470.866 320.145C471.428 320.707 472.191 321.023 472.987 321.023C473.783 321.023 474.546 320.707 475.108 320.145C482.735 313.267 487.836 303.832 490.915 294.13C494.312 283.173 495.306 271.612 493.828 260.236C493.16 254.57 491.87 248.996 489.982 243.613C487.936 238.191 485.38 232.975 482.35 228.034C476.71 218.499 470.707 208.856 469.891 197.503C469.489 191.92 470.188 186.1 473.642 181.611C473.453 181.856 473.793 181.432 473.795 181.43C474.004 181.179 474.221 180.935 474.446 180.698C474.874 180.238 475.335 179.809 475.824 179.415C475.72 179.497 475.455 179.674 475.938 179.339C476.179 179.173 476.424 179.013 476.676 178.865C476.881 178.744 477.092 178.637 477.302 178.526C477.427 178.462 477.553 178.402 477.681 178.346C477.389 178.472 477.406 178.473 477.731 178.349C477.965 178.276 479.128 178.025 478.483 178.106C478.698 178.081 478.914 178.066 479.131 178.064C479.222 178.062 480.032 178.104 479.636 178.061C479.174 178.01 480.002 178.143 480.008 178.144C480.267 178.207 480.521 178.288 480.769 178.385C480.145 178.136 481.793 179.063 481.413 178.767C481.987 179.306 482.746 179.607 483.534 179.607C484.322 179.607 485.081 179.306 485.655 178.767C486.69 177.732 486.942 175.524 485.655 174.524L485.655 174.524Z" fill="#FFB74C"/>
</g>
</g>
<defs>
<clipPath id="clip0">
<rect width="722.782" height="670.023" fill="white"/>
</clipPath>
</defs>
</svg>
